<?xml version="1.0" encoding="utf-8"?>
<svg width="60" height="61" viewBox="0 0 60 60" fill="none" xmlns="http://www.w3.org/2000/svg">
  <g filter="url(#filter0_d_11_50)" transform="matrix(-1, 0, 0, -1, 60, 60.505798)">
    <circle cx="30" cy="30.2529" r="30" fill="#F53838"/>
    <circle cx="30" cy="30.2529" r="29" stroke="#F53838" stroke-width="2"/>
  </g>
  <path d="M 38.75 29.005 L 23.925 29.005 L 28.462 23.555 C 28.674 23.299 28.777 22.97 28.746 22.64 C 28.716 22.309 28.555 22.004 28.3 21.792 C 28.044 21.58 27.715 21.478 27.385 21.508 C 27.054 21.539 26.749 21.699 26.537 21.955 L 20.287 29.455 C 20.245 29.514 20.208 29.577 20.175 29.642 C 20.175 29.705 20.175 29.742 20.087 29.805 C 20.031 29.948 20.001 30.101 20 30.255 C 20.001 30.409 20.031 30.561 20.087 30.705 C 20.087 30.767 20.087 30.805 20.175 30.867 C 20.208 30.932 20.245 30.995 20.287 31.055 L 26.537 38.555 C 26.655 38.696 26.802 38.809 26.968 38.887 C 27.135 38.965 27.316 39.005 27.5 39.005 C 27.792 39.005 28.075 38.904 28.3 38.717 C 28.426 38.612 28.531 38.483 28.608 38.338 C 28.684 38.192 28.732 38.033 28.747 37.87 C 28.762 37.706 28.744 37.541 28.696 37.384 C 28.647 37.227 28.568 37.081 28.462 36.955 L 23.925 31.505 L 38.75 31.505 C 39.081 31.505 39.399 31.373 39.634 31.139 C 39.868 30.904 40 30.586 40 30.255 C 40 29.923 39.868 29.605 39.634 29.371 C 39.399 29.136 39.081 29.005 38.75 29.005 Z" fill="white" transform="matrix(-1, 0, 0, -1, 60, 60.507854)"/>
  <defs>
    <filter id="filter0_d_11_50" x="0" y="0.25293" width="148" height="148" filterUnits="userSpaceOnUse" color-interpolation-filters="sRGB">
      <feFlood flood-opacity="0" result="BackgroundImageFix"/>
      <feColorMatrix in="SourceAlpha" type="matrix" values="0 0 0 0 0 0 0 0 0 0 0 0 0 0 0 0 0 0 127 0" result="hardAlpha"/>
      <feOffset dy="14"/>
      <feGaussianBlur stdDeviation="22"/>
      <feColorMatrix type="matrix" values="0 0 0 0 0.0561111 0 0 0 0 0.0777333 0 0 0 0 0.133333 0 0 0 0.08 0"/>
      <feBlend mode="normal" in2="BackgroundImageFix" result="effect1_dropShadow_11_50"/>
      <feBlend mode="normal" in="SourceGraphic" in2="effect1_dropShadow_11_50" result="shape"/>
    </filter>
  </defs>
</svg>