<?xml version="1.0" encoding="utf-8"?>
<svg width="25" height="25" viewBox="0 0 25 25" fill="none" xmlns="http://www.w3.org/2000/svg">
  <path d="M 5.325 24.069 C 5.194 24.069 5.064 24.043 4.943 23.993 C 4.821 23.943 4.711 23.869 4.618 23.777 L 0.376 19.534 C 0.281 19.441 0.204 19.331 0.152 19.209 C 0.099 19.087 0.072 18.956 0.07 18.823 C 0.069 18.69 0.094 18.559 0.145 18.436 C 0.195 18.313 0.269 18.201 0.363 18.107 C 0.457 18.013 0.568 17.939 0.691 17.888 C 0.814 17.838 0.946 17.813 1.078 17.814 C 1.211 17.815 1.342 17.842 1.464 17.895 C 1.586 17.947 1.697 18.023 1.789 18.119 L 5.324 21.654 L 11.689 15.291 C 11.877 15.103 12.131 14.997 12.396 14.997 C 12.662 14.997 12.916 15.103 13.104 15.29 C 13.291 15.478 13.397 15.732 13.397 15.997 C 13.397 16.262 13.292 16.517 13.104 16.705 L 6.032 23.777 C 5.939 23.869 5.829 23.943 5.708 23.993 C 5.586 24.043 5.456 24.069 5.325 24.069 Z" fill="#2FAB73"/>
</svg>